<svg width="120" height="39" viewBox="0 0 120 39" fill="none" xmlns="http://www.w3.org/2000/svg">
<path d="M0 14C0 6.26801 6.26801 0 14 0H26C33.732 0 40 6.26801 40 14V25C40 32.732 33.7309 39 25.9989 39C21.9212 39 18.0788 39 14.0011 39C6.26909 39 0 32.732 0 25V14Z" fill="#66FCF1"/>
<path d="M12.9194 8.80469V28H8.97754V8.80469H12.9194ZM24.811 8.80469V28H20.8691V8.80469H24.811ZM30.7173 8.80469V11.9028H15.0552V8.80469H30.7173Z" fill="#1F2833"/>
<path d="M61.3364 11.8047V31H57.3813L49.6689 18.1328V31H45.7139V11.8047H49.6689L57.3945 24.6851V11.8047H61.3364ZM77.6577 27.915V31H67.4404V27.915H77.6577ZM68.7324 11.8047V31H64.7773V11.8047H68.7324ZM76.3262 19.6226V22.6284H67.4404V19.6226H76.3262ZM77.6445 11.8047V14.9028H67.4404V11.8047H77.6445ZM84.5923 27.9546L88.4155 11.8047H90.5513L91.0391 14.4941L86.9653 31H84.6714L84.5923 27.9546ZM82.6279 11.8047L85.792 27.9546L85.5283 31H82.9707L78.7124 11.8047H82.6279ZM94.4009 27.8887L97.5254 11.8047H101.441L97.1958 31H94.6382L94.4009 27.8887ZM91.751 11.8047L95.6006 28.0205L95.4951 31H93.2012L89.1011 14.481L89.6284 11.8047H91.751ZM113.583 25.9771C113.583 25.6343 113.53 25.3267 113.425 25.0542C113.328 24.7729 113.144 24.5181 112.871 24.2896C112.599 24.0522 112.216 23.8193 111.724 23.5908C111.232 23.3623 110.595 23.125 109.812 22.8789C108.942 22.5977 108.116 22.2812 107.334 21.9297C106.561 21.5781 105.875 21.1694 105.277 20.7036C104.688 20.229 104.223 19.6797 103.88 19.0557C103.546 18.4316 103.379 17.7065 103.379 16.8804C103.379 16.0806 103.555 15.3555 103.906 14.7051C104.258 14.0459 104.75 13.4834 105.383 13.0176C106.016 12.543 106.763 12.1782 107.624 11.9233C108.494 11.6685 109.448 11.541 110.485 11.541C111.9 11.541 113.135 11.7959 114.189 12.3057C115.244 12.8154 116.062 13.5142 116.642 14.4019C117.23 15.2896 117.525 16.3047 117.525 17.4473H113.596C113.596 16.8848 113.478 16.3926 113.24 15.9707C113.012 15.54 112.66 15.2017 112.186 14.9556C111.72 14.7095 111.131 14.5864 110.419 14.5864C109.733 14.5864 109.162 14.6919 108.705 14.9028C108.248 15.105 107.905 15.3818 107.677 15.7334C107.448 16.0762 107.334 16.4629 107.334 16.8936C107.334 17.2188 107.413 17.5132 107.571 17.7769C107.738 18.0405 107.984 18.2866 108.31 18.5151C108.635 18.7437 109.035 18.959 109.509 19.1611C109.984 19.3633 110.533 19.561 111.157 19.7544C112.203 20.0708 113.122 20.4268 113.913 20.8223C114.712 21.2178 115.38 21.6616 115.917 22.1538C116.453 22.646 116.857 23.2041 117.129 23.8281C117.402 24.4521 117.538 25.1597 117.538 25.9507C117.538 26.7856 117.375 27.5327 117.05 28.1919C116.725 28.8511 116.255 29.4092 115.64 29.8662C115.024 30.3232 114.291 30.6704 113.438 30.9077C112.585 31.145 111.632 31.2637 110.577 31.2637C109.628 31.2637 108.692 31.1406 107.769 30.8945C106.846 30.6396 106.007 30.2573 105.251 29.7476C104.504 29.2378 103.906 28.5874 103.458 27.7964C103.01 27.0054 102.786 26.0693 102.786 24.9883H106.754C106.754 25.5859 106.846 26.0913 107.031 26.5044C107.215 26.9175 107.475 27.2515 107.809 27.5063C108.151 27.7612 108.556 27.9458 109.021 28.0601C109.496 28.1743 110.015 28.2314 110.577 28.2314C111.263 28.2314 111.825 28.1348 112.265 27.9414C112.713 27.748 113.042 27.48 113.253 27.1372C113.473 26.7944 113.583 26.4077 113.583 25.9771Z" fill="#C5C6C7"/>
</svg>
